<svg xmlns="http://www.w3.org/2000/svg" viewBox="0 0 21 21" height="21" width="21"><title>blood_bank.svg</title><rect fill="none" x="0" y="0" width="21" height="21"></rect><rect x="1" y="1" rx="9.5" ry="9.5" width="19" height="19" stroke="#bbb" style="stroke-linejoin:round;stroke-miterlimit:4;" fill="#bbb" stroke-width="2"></rect><rect x="1" y="1" width="19" height="19" rx="9.5" ry="9.5" fill="#fff"></rect><path fill="#ba3827" transform="translate(3 3)" d="m11.2 6.1-3.7-5.1-3.7 5.1c-.5.7-.8 1.6-.8 2.5 0 2.4 2 4.4 4.5 4.4s4.5-2 4.5-4.4c0-.9-.3-1.8-.8-2.5zm-1.2 2.9h-2v2h-1v-2h-2v-1h2v-2h1v2h2z"></path></svg>