<svg xmlns="http://www.w3.org/2000/svg" viewBox="0 0 21 21" height="21" width="21"><title>slipway.svg</title><rect fill="none" x="0" y="0" width="21" height="21"></rect><rect x="1" y="1" rx="9.5" ry="9.5" width="19" height="19" stroke="#bbb" style="stroke-linejoin:round;stroke-miterlimit:4;" fill="#bbb" stroke-width="2"></rect><rect x="1" y="1" width="19" height="19" rx="9.5" ry="9.5" fill="#fff"></rect><path fill="#5d60be" transform="translate(3 3)" d="m2 10 12 1.495V12H2v-2Zm12-4-1 1v.583L5.196 4.332l.063-.125L6.61 2.845h.831a.35.35 0 0 0 0-.7h-.976a.352.352 0 0 0-.248.103L4.723 3.753a.371.371 0 0 0-.066.09l-.109.219L2 3c0 2-.03 3.958 2.86 4.5C6.28 7.765 13 9 13 9l2-2-1-1Z"></path></svg>